HIERARCHY
ROOT hip
{
  OFFSET 0 0 0
  CHANNELS 6 Xposition Yposition Zposition Zrotation Yrotation Xrotation
  JOINT abdomen
  {
    OFFSET 0 20.6881 -0.73152
    CHANNELS 3 Zrotation Xrotation Yrotation
    JOINT chest
    {
      OFFSET 0 11.7043 -0.48768
      CHANNELS 3 Zrotation Xrotation Yrotation
      JOINT neck
      {
        OFFSET 0 22.1894 -2.19456
        CHANNELS 3 Zrotation Xrotation Yrotation
        JOINT head
        {
          OFFSET -0.24384 7.07133 1.2192
          CHANNELS 3 Zrotation Xrotation Yrotation
          JOINT leftEye
          {
            OFFSET 4.14528 8.04674 8.04672
            CHANNELS 3 Zrotation Xrotation Yrotation
            End Site
            {
              OFFSET 1 0 0
            }
          }
          JOINT rightEye
          {
            OFFSET -3.6576 8.04674 8.04672
            CHANNELS 3 Zrotation Xrotation Yrotation
            End Site
            {
              OFFSET 1 0 0
            }
          }
        }
      }
      JOINT rCollar
      {
        OFFSET -2.68224 19.2634 -4.8768
        CHANNELS 3 Zrotation Xrotation Yrotation
        JOINT rShldr
        {
          OFFSET -8.77824 -1.95073 1.46304
          CHANNELS 3 Zrotation Xrotation Yrotation
          JOINT rForeArm
          {
            OFFSET -28.1742 -1.7115 0.48768
            CHANNELS 3 Zrotation Xrotation Yrotation
            JOINT rHand
            {
              OFFSET -22.5879 0.773209 7.07136
              CHANNELS 3 Zrotation Xrotation Yrotation
              JOINT rThumb1
              {
                OFFSET -1.2192 -0.487915 3.41376
                CHANNELS 3 Zrotation Xrotation Yrotation
                JOINT rThumb2
                {
                  OFFSET -3.37035 -0.52449 3.41376
                  CHANNELS 3 Zrotation Xrotation Yrotation
                  End Site
                  {
                    OFFSET -1.78271 -1.18214 1.43049
                  }
                }
              }
              JOINT rIndex1
              {
                OFFSET -7.75947 0.938293 5.60832
                CHANNELS 3 Zrotation Xrotation Yrotation
                JOINT rIndex2
                {
                  OFFSET -2.54057 -0.884171 1.56538
                  CHANNELS 3 Zrotation Xrotation Yrotation
                  End Site
                  {
                    OFFSET -1.62519 -0.234802 1.16502
                  }
                }
              }
              JOINT rMid1
              {
                OFFSET -8.24714 1.18213 3.41376
                CHANNELS 3 Zrotation Xrotation Yrotation
                JOINT rMid2
                {
                  OFFSET -3.10165 -0.590103 1.0647
                  CHANNELS 3 Zrotation Xrotation Yrotation
                  End Site
                  {
                    OFFSET -2.48547 -0.328903 0.83742
                  }
                }
              }
              JOINT rRing1
              {
                OFFSET -8.82822 0.546677 1.51678
                CHANNELS 3 Zrotation Xrotation Yrotation
                JOINT rRing2
                {
                  OFFSET -2.60934 -0.819778 -0.0198488
                  CHANNELS 3 Zrotation Xrotation Yrotation
                  End Site
                  {
                    OFFSET -2.33842 -0.294052 0.168128
                  }
                }
              }
              JOINT rPinky1
              {
                OFFSET -8.27202 -0.0477905 -0.4584
                CHANNELS 3 Zrotation Xrotation Yrotation
                JOINT rPinky2
                {
                  OFFSET -1.82734 -0.647385 -0.700984
                  CHANNELS 3 Zrotation Xrotation Yrotation
                  End Site
                  {
                    OFFSET -1.69225 -0.51767 -0.607171
                  }
                }
              }
            }
          }
        }
      }
      JOINT lCollar
      {
        OFFSET 2.68224 19.2634 -4.8768
        CHANNELS 3 Zrotation Xrotation Yrotation
        JOINT lShldr
        {
          OFFSET 8.77824 -1.95073 1.46304
          CHANNELS 3 Zrotation Xrotation Yrotation
          JOINT lForeArm
          {
            OFFSET 28.1742 -1.7115 0.48768
            CHANNELS 3 Zrotation Xrotation Yrotation
            JOINT lHand
            {
              OFFSET 22.5879 0.773209 7.07136
              CHANNELS 3 Zrotation Xrotation Yrotation
              JOINT lThumb1
              {
                OFFSET 1.2192 -0.487915 3.41376
                CHANNELS 3 Zrotation Xrotation Yrotation
                JOINT lThumb2
                {
                  OFFSET 3.37035 -0.52449 3.41376
                  CHANNELS 3 Zrotation Xrotation Yrotation
                  End Site
                  {
                    OFFSET 1.78271 -1.18214 1.43049
                  }
                }
              }
              JOINT lIndex1
              {
                OFFSET 7.75947 0.938293 5.60832
                CHANNELS 3 Zrotation Xrotation Yrotation
                JOINT lIndex2
                {
                  OFFSET 2.54057 -0.884171 1.56538
                  CHANNELS 3 Zrotation Xrotation Yrotation
                  End Site
                  {
                    OFFSET 1.62519 -0.234802 1.16502
                  }
                }
              }
              JOINT lMid1
              {
                OFFSET 8.24714 1.18213 3.41376
                CHANNELS 3 Zrotation Xrotation Yrotation
                JOINT lMid2
                {
                  OFFSET 3.10165 -0.590103 1.0647
                  CHANNELS 3 Zrotation Xrotation Yrotation
                  End Site
                  {
                    OFFSET 2.48547 -0.328903 0.83742
                  }
                }
              }
              JOINT lRing1
              {
                OFFSET 8.82822 0.546677 1.51678
                CHANNELS 3 Zrotation Xrotation Yrotation
                JOINT lRing2
                {
                  OFFSET 2.60934 -0.819778 -0.0198488
                  CHANNELS 3 Zrotation Xrotation Yrotation
                  End Site
                  {
                    OFFSET 2.33842 -0.294052 0.168128
                  }
                }
              }
              JOINT lPinky1
              {
                OFFSET 8.27202 -0.0477905 -0.4584
                CHANNELS 3 Zrotation Xrotation Yrotation
                JOINT lPinky2
                {
                  OFFSET 1.82734 -0.647385 -0.700984
                  CHANNELS 3 Zrotation Xrotation Yrotation
                  End Site
                  {
                    OFFSET 1.69225 -0.51767 -0.607171
                  }
                }
              }
            }
          }
        }
      }
    }
  }
  JOINT rButtock
  {
    OFFSET -8.77824 4.35084 1.2192
    CHANNELS 3 Zrotation Xrotation Yrotation
    JOINT rThigh
    {
      OFFSET 0 -1.70687 -2.19456
      CHANNELS 3 Zrotation Xrotation Yrotation
      JOINT rShin
      {
        OFFSET 0 -36.8199 0.73152
        CHANNELS 3 Zrotation Xrotation Yrotation
        JOINT rFoot
        {
          OFFSET 0.73152 -45.1104 -5.12064
          CHANNELS 3 Zrotation Xrotation Yrotation
          End Site
          {
            OFFSET -1.1221 -3.69964 12.103
          }
        }
      }
    }
  }
  JOINT lButtock
  {
    OFFSET 8.77824 4.35084 1.2192
    CHANNELS 3 Zrotation Xrotation Yrotation
    JOINT lThigh
    {
      OFFSET 0 -1.70687 -2.19456
      CHANNELS 3 Zrotation Xrotation Yrotation
      JOINT lShin
      {
        OFFSET 0 -36.8199 0.73152
        CHANNELS 3 Zrotation Xrotation Yrotation
        JOINT lFoot
        {
          OFFSET -0.73152 -45.1104 -5.12064
          CHANNELS 3 Zrotation Xrotation Yrotation
          End Site
          {
            OFFSET 1.1221 -3.69964 12.103
          }
        }
      }
    }
  }
}
MOTION
Frames:	9
Frame Time:	0.00833333
1.05279 84.8083 4.21504 0.0 0.0 0.0 -0.311445 -0.00212754 -0.00892046 -0.0860048 -0.00337421 -0.0149008 -1.33878e-14 0.0 -5.59082e-17 -4.01265e-14 3.18055e-15 -1.77043e-16 -0.0 0.0 0.0 -0.0 0.0 0.0 -6.61119e-15 -9.31803e-18 9.93923e-17 -1.38418e-13 -3.41661e-16 -1.98785e-16 -2.41618e-12 7.16022e-13 -2.22639e-14 -2.76933e-11 -7.66414e-13 -1.46306e-13 -6.53196e-11 -1.0928e-13 -3.40319e-13 -1.1281e-10 -1.84472e-13 -5.69319e-13 -6.53159e-11 -1.08139e-13 -3.435e-13 7.73091 5.47488 0.417314 -6.532e-11 -1.09232e-13 -3.33958e-13 2.90554 0.965183 0.102902 -6.53124e-11 -1.08437e-13 -3.31573e-13 10.2786 0.731801 0.0259123 -6.5325e-11 -1.08139e-13 -3.18055e-13 2.22167 -0.733487 -0.20892 -6.70782e-15 -9.31803e-18 -1.98785e-16 -1.41949e-13 -1.61513e-16 -1.98785e-15 -2.42105e-12 -7.30931e-13 2.8625e-14 -2.76895e-11 6.89186e-13 -1.78111e-13 -6.53169e-11 -9.33679e-14 -3.27597e-13 -1.12788e-10 -1.62208e-13 -5.66934e-13 -6.53214e-11 -9.26337e-14 -3.21236e-13 -7.73091 5.47488 -0.417314 -6.53173e-11 -9.30312e-14 -3.30778e-13 -2.90554 0.965183 -0.102902 -6.53282e-11 -9.29318e-14 -3.29983e-13 -10.2786 0.731801 -0.0259123 -6.53121e-11 -9.38264e-14 -3.435e-13 -2.22167 -0.733487 0.20892 -2.03217e-16 0.0 -3.88251e-19 0.23662 -2.68365 -0.0295301 -0.00690306 -0.690849 -0.0602996 -0.472133 3.37445 0.121838 2.03217e-16 0.0 3.88251e-19 -0.711758 -3.90529 0.0594138 0.00342984 1.52198 0.0272292 0.477272 2.38332 -0.102524
0.491296 84.0369 2.25734 -3.4791 0.2859 9.4716 1.41416 -2.74212 -0.110434 0.167078 0.0541152 -0.07224 0.775646 1.82568 0.0388189 -1.88873 -3.96994 -0.289248 -0.0 0.0 0.0 -0.0 0.0 0.0 3.41136e-14 6.53556e-14 -8.33964e-15 8.16561 -6.11741 8.22128 -11.8638 -8.79745 13.3735 0.00479498 -1.56151 -0.219176 -9.23083e-11 2.39007e-10 7.1823e-11 -1.58818e-10 4.12711e-10 1.23775e-10 -9.23049e-11 2.39011e-10 7.18183e-11 7.73091 5.47488 0.417314 -9.23087e-11 2.39005e-10 7.18294e-11 2.90554 0.965183 0.102902 -9.23e-11 2.39006e-10 7.18306e-11 10.2786 0.731801 0.0259123 -9.23148e-11 2.39007e-10 7.1842e-11 2.22167 -0.733487 -0.20892 3.40344e-14 6.53579e-14 -8.60947e-15 -15.0012 1.88149 -7.13305 13.0197 -10.0432 -13.9019 -0.0323103 -3.99101 0.556003 8.73118e-11 4.85927e-10 -1.29287e-10 1.52021e-10 8.35796e-10 -2.22431e-10 8.73091e-11 4.85927e-10 -1.29278e-10 -7.73091 5.47488 -0.417314 8.73113e-11 4.85926e-10 -1.2929e-10 -2.90554 0.965183 -0.102902 8.73014e-11 4.85927e-10 -1.2929e-10 -10.2786 0.731801 -0.0259123 8.7317e-11 4.85927e-10 -1.29303e-10 -2.22167 -0.733487 0.20892 -2.03217e-16 0.0 -3.88251e-19 -5.30566 -3.10664 -0.0416898 -0.00445695 0.0798092 -0.0428394 -0.462978 3.02156 0.113517 2.03217e-16 0.0 3.88251e-19 1.12569 -7.78471 -7.2504 0.0133238 6.00917 -0.0380539 0.918217 1.46763 7.299
0.499714 84.0402 2.25556 -3.4288 0.2078 9.482 3.22478 -5.63873 -0.215941 0.434131 0.113203 -0.132016 1.59259 3.75603 0.0793517 -3.9277 -8.16244 -0.600415 -0.0 0.0 0.0 -0.0 0.0 0.0 7.95203e-14 1.41712e-13 -1.82633e-14 18.6558 -12.1366 17.2579 -19.9916 -16.5326 28.4912 -0.00330947 -3.24454 -0.455973 -1.28277e-10 5.1775e-10 1.5785e-10 -2.20244e-10 8.94092e-10 2.72091e-10 -1.28274e-10 5.17757e-10 1.57844e-10 7.73091 5.47488 0.417314 -1.28277e-10 5.17746e-10 1.57856e-10 2.90554 0.965183 0.102902 -1.28267e-10 5.17747e-10 1.57856e-10 10.2786 0.731801 0.0259123 -1.28285e-10 5.17749e-10 1.57865e-10 2.22167 -0.733487 -0.20892 7.94629e-14 1.41717e-13 -1.85025e-14 -30.3342 3.80713 -14.7374 21.5291 -18.7564 -29.9426 0.0186352 -8.22351 1.15488 2.6978e-10 1.1037e-09 -2.91032e-10 4.68688e-10 1.89899e-09 -5.00793e-10 2.6978e-10 1.10369e-09 -2.9102e-10 -7.73091 5.47488 -0.417314 2.6978e-10 1.10369e-09 -2.91033e-10 -2.90554 0.965183 -0.102902 2.69771e-10 1.1037e-09 -2.91035e-10 -10.2786 0.731801 -0.0259123 2.69786e-10 1.1037e-09 -2.91046e-10 -2.22167 -0.733487 0.20892 -2.03217e-16 0.0 -3.88251e-19 -11.1648 -3.55379 -0.0545569 -0.0023848 0.894464 -0.0244121 -0.453417 2.64853 0.104732 2.03217e-16 0.0 3.88251e-19 1.98225 -11.6042 -15.1571 0.035123 10.7525 -0.108489 1.63877 0.506308 15.1196
0.501827 84.0416 2.28497 -3.4084 0.0994 9.4657 4.83598 -8.22199 -0.316333 0.673588 0.169093 -0.186919 2.31949 5.47703 0.116931 -5.78868 -11.9086 -0.884704 -0.0 0.0 0.0 -0.0 0.0 0.0 1.15563e-13 1.96085e-13 -2.52177e-14 29.7755 -16.8164 25.6957 -23.7473 -20.548 42.9457 -0.0215563 -4.68426 -0.659486 -1.46286e-10 7.17239e-10 2.1615e-10 -2.50833e-10 1.2385e-09 3.72462e-10 -1.46283e-10 7.17248e-10 2.16142e-10 7.73091 5.47488 0.417314 -1.46286e-10 7.17234e-10 2.16156e-10 2.90554 0.965183 0.102902 -1.46275e-10 7.17234e-10 2.16155e-10 10.2786 0.731801 0.0259123 -1.46294e-10 7.17237e-10 2.16162e-10 2.22167 -0.733487 -0.20892 1.15519e-13 1.96092e-13 -2.54308e-14 -43.6294 5.29558 -21.4838 24.9231 -22.8678 -45.4625 0.139803 -11.9685 1.70095 3.92569e-10 1.45797e-09 -3.87207e-10 6.8164e-10 2.50771e-09 -6.66161e-10 3.9257e-10 1.45797e-09 -3.87193e-10 -7.73091 5.47488 -0.417314 3.92568e-10 1.45796e-09 -3.87208e-10 -2.90554 0.965183 -0.102902 3.92561e-10 1.45797e-09 -3.87211e-10 -10.2786 0.731801 -0.0259123 3.92575e-10 1.45797e-09 -3.87221e-10 -2.22167 -0.733487 0.20892 -2.03217e-16 0.0 -3.88251e-19 -16.3908 -3.95263 -0.0660474 -0.000973485 1.62113 -0.00793076 -0.444977 2.31577 0.0969019 2.03217e-16 0.0 3.88251e-19 1.83353 -14.5923 -22.429 0.0646707 14.9835 -0.173886 2.49581 -0.303735 22.095
0.504365 84.0416 2.29892 -3.3916 0.058 9.5052 5.96824 -10.0219 -0.401385 0.843837 0.21699 -0.229639 2.82635 6.67468 0.146694 -7.11709 -14.5401 -1.08565 -0.0 0.0 0.0 -0.0 0.0 0.0 1.28197e-13 1.95501e-13 -2.47487e-14 38.729 -19.6376 31.6561 -25.0035 -21.1036 52.9618 -0.037463 -5.51602 -0.777654 -1.19395e-10 7.18595e-10 2.05133e-10 -2.0433e-10 1.24049e-09 3.52973e-10 -1.19392e-10 7.18605e-10 2.05124e-10 7.73091 5.47488 0.417314 -1.19395e-10 7.1859e-10 2.05139e-10 2.90554 0.965183 0.102902 -1.19384e-10 7.18589e-10 2.05137e-10 10.2786 0.731801 0.0259123 -1.19404e-10 7.18592e-10 2.05143e-10 2.22167 -0.733487 -0.20892 1.28144e-13 1.95508e-13 -2.49475e-14 -52.8363 6.04633 -25.9977 25.7942 -22.9177 -55.9287 0.264974 -14.4989 2.08279 3.66158e-10 1.1535e-09 -3.19461e-10 6.35301e-10 1.98023e-09 -5.49042e-10 3.6616e-10 1.15349e-09 -3.19445e-10 -7.73091 5.47488 -0.417314 3.66158e-10 1.15349e-09 -3.19461e-10 -2.90554 0.965183 -0.102902 3.6615e-10 1.1535e-09 -3.19464e-10 -10.2786 0.731801 -0.0259123 3.66164e-10 1.1535e-09 -3.19474e-10 -2.22167 -0.733487 0.20892 -2.03217e-16 0.0 -3.88251e-19 -20.0331 -4.23071 -0.0740677 -0.000223343 2.12781 0.00368463 -0.43912 2.0837 0.0914425 2.03217e-16 0.0 3.88251e-19 1.25225 -16.3634 -27.633 0.0910525 17.9334 -0.221764 3.20667 -0.822629 26.9563
0.496461 84.0408 2.306 -3.428 0.0398 9.5581 6.4405 -10.729 -0.464561 0.916093 0.2599 -0.255843 3.02523 7.13974 0.164264 -7.65249 -15.6196 -1.15932 -0.0 0.0 0.0 -0.0 0.0 0.0 1.03467e-13 1.02171e-13 -1.17089e-14 43.1125 -20.9384 33.6312 -25.2465 -20.5927 56.2823 -0.0386979 -5.48438 -0.773253 -2.8874e-11 3.92036e-10 6.98702e-11 -4.87098e-11 6.75649e-10 1.18516e-10 -2.88719e-11 3.92045e-10 6.98573e-11 7.73091 5.47488 0.417314 -2.88747e-11 3.92035e-10 6.98761e-11 2.90554 0.965183 0.102902 -2.88649e-11 3.92033e-10 6.9872e-11 10.2786 0.731801 0.0259123 -2.88821e-11 3.92035e-10 6.98767e-11 2.22167 -0.733487 -0.20892 1.03364e-13 1.02176e-13 -1.19166e-14 -56.6776 6.03902 -27.3403 25.8622 -21.9657 -58.9088 0.321105 -15.4166 2.22477 9.50118e-11 -3.02606e-10 3.83703e-11 1.6342e-10 -5.33911e-10 6.80974e-11 9.50122e-11 -3.02611e-10 3.83856e-11 -7.73091 5.47488 -0.417314 9.50122e-11 -3.02608e-10 3.83712e-11 -2.90554 0.965183 -0.102902 9.50042e-11 -3.02606e-10 3.83686e-11 -10.2786 0.731801 -0.0259123 9.50178e-11 -3.02605e-10 3.83592e-11 -2.22167 -0.733487 0.20892 -2.03217e-16 0.0 -3.88251e-19 -21.4583 -4.33991 -0.0772208 4.41333e-05 2.3269 0.00850718 -0.436758 1.99242 0.0892867 2.03217e-16 0.0 3.88251e-19 0.933943 -17.0004 -29.6967 0.102093 19.0919 -0.241713 3.5085 -1.0139 28.8475
0.485917 84.0397 2.30556 -3.479 0.0437 9.6323 6.44413 -10.6553 -0.511369 0.918381 0.298953 -0.270224 3.00488 7.08152 0.173064 -7.61206 -15.5904 -1.13856 -0.0 0.0 0.0 -0.0 0.0 0.0 5.22665e-14 -5.66523e-14 1.02064e-14 43.8766 -21.4413 32.6262 -24.9858 -20.1763 54.9548 -0.0293624 -4.83662 -0.681375 1.0706e-10 -1.6634e-10 -1.52845e-10 1.84794e-10 -2.89898e-10 -2.67243e-10 1.07062e-10 -1.66333e-10 -1.52862e-10 7.73091 5.47488 0.417314 1.07059e-10 -1.66334e-10 -1.52839e-10 2.90554 0.965183 0.102902 1.07067e-10 -1.6634e-10 -1.52846e-10 10.2786 0.731801 0.0259123 1.07054e-10 -1.66339e-10 -1.52841e-10 2.22167 -0.733487 -0.20892 5.20865e-14 -5.66521e-14 9.9734e-15 -56.741 5.53291 -26.4128 25.4678 -21.2052 -56.8029 0.310188 -15.179 2.1886 -3.49238e-10 -2.57038e-09 6.0052e-10 -6.09442e-10 -4.44824e-09 1.03742e-09 -3.4924e-10 -2.57039e-09 6.00534e-10 -7.73091 5.47488 -0.417314 -3.49237e-10 -2.57038e-09 6.00522e-10 -2.90554 0.965183 -0.102902 -3.49246e-10 -2.57038e-09 6.00521e-10 -10.2786 0.731801 -0.0259123 -3.49233e-10 -2.57038e-09 6.00511e-10 -2.22167 -0.733487 0.20892 -2.03217e-16 0.0 -3.88251e-19 -21.2997 -4.32849 -0.0768935 7.07129e-05 2.30627 0.00847259 -0.43687 2.0017 0.0894893 2.03217e-16 0.0 3.88251e-19 0.991646 -16.9876 -29.4625 0.0995426 18.9706 -0.240632 3.47373 -0.9961 28.6157
0.487967 84.0387 2.30694 -3.4718 0.0799 9.6802 6.2589 -10.2633 -0.549167 0.894287 0.326538 -0.279012 2.90054 6.81383 0.179846 -7.35235 -15.1053 -1.07833 -0.0 0.0 0.0 -0.0 0.0 0.0 -2.17574e-15 -2.16387e-13 3.21868e-14 43.1063 -21.5533 30.3767 -24.4433 -19.6446 51.7537 -0.0190507 -3.96227 -0.557718 2.59927e-10 -7.36602e-10 -3.67015e-10 4.47553e-10 -1.27585e-09 -6.38063e-10 2.59929e-10 -7.36598e-10 -3.67036e-10 7.73091 5.47488 0.417314 2.59925e-10 -7.36591e-10 -3.67011e-10 2.90554 0.965183 0.102902 2.59931e-10 -7.36599e-10 -3.67018e-10 10.2786 0.731801 0.0259123 2.59922e-10 -7.36599e-10 -3.67014e-10 2.22167 -0.733487 -0.20892 -2.42905e-15 -2.16391e-13 3.19333e-14 -55.3173 4.73631 -24.584 24.7253 -20.2087 -52.6633 0.267142 -14.3445 2.06108 -8.0536e-10 -4.79579e-09 1.14745e-09 -1.40264e-09 -8.28908e-09 1.98034e-09 -8.05365e-10 -4.7958e-09 1.14746e-09 -7.73091 5.47488 -0.417314 -8.05358e-10 -4.79579e-09 1.14745e-09 -2.90554 0.965183 -0.102902 -8.05368e-10 -4.79579e-09 1.14745e-09 -10.2786 0.731801 -0.0259123 -8.05355e-10 -4.79579e-09 1.14744e-09 -2.22167 -0.733487 0.20892 -2.03217e-16 0.0 -3.88251e-19 -20.5077 -4.26847 -0.0751645 -1.71295e-06 2.19713 0.00644869 -0.438017 2.05151 0.0906472 2.03217e-16 0.0 3.88251e-19 1.19949 -16.7103 -28.3101 0.0919268 18.3344 -0.230898 3.30562 -0.895073 27.544
0.492779 84.0383 2.31335 -3.4513 0.1146 9.6937 6.16292 -10.0156 -0.585632 0.887409 0.335041 -0.288435 2.84723 6.65046 0.191388 -7.23021 -14.8175 -1.03377 -0.0 0.0 0.0 -0.0 0.0 0.0 -3.66315e-14 -3.1245e-13 4.54223e-14 42.9427 -21.6881 28.6582 -23.9471 -18.9988 49.4428 -0.0129793 -3.25092 -0.457382 4.01246e-10 -1.09882e-09 -4.76644e-10 6.90936e-10 -1.9019e-09 -8.27704e-10 4.01248e-10 -1.09882e-09 -4.76667e-10 7.73091 5.47488 0.417314 4.01244e-10 -1.09881e-09 -4.76641e-10 2.90554 0.965183 0.102902 4.01249e-10 -1.09881e-09 -4.76649e-10 10.2786 0.731801 0.0259123 4.01243e-10 -1.09881e-09 -4.76644e-10 2.22167 -0.733487 -0.20892 -3.69213e-14 -3.12457e-13 4.51738e-14 -54.7468 3.88982 -23.2144 23.9746 -19.0497 -49.5291 0.227879 -13.4713 1.92931 -1.11212e-09 -6.12481e-09 1.4596e-09 -1.93551e-09 -1.05827e-08 2.51831e-09 -1.11213e-09 -6.12482e-09 1.45961e-09 -7.73091 5.47488 -0.417314 -1.11212e-09 -6.1248e-09 1.4596e-09 -2.90554 0.965183 -0.102902 -1.11213e-09 -6.12481e-09 1.4596e-09 -10.2786 0.731801 -0.0259123 -1.11212e-09 -6.1248e-09 1.45959e-09 -2.22167 -0.733487 0.20892 -2.03217e-16 0.0 -3.88251e-19 -20.0327 -4.23191 -0.0741129 -4.04145e-05 2.13069 0.00530368 -0.438762 2.08178 0.0913571 2.03217e-16 0.0 3.88251e-19 1.31851 -16.5442 -27.6238 0.0879614 17.948 -0.224962 3.20937 -0.835516 26.9154
